<svg width="34" height="44" viewBox="0 0 34 44" fill="none" xmlns="http://www.w3.org/2000/svg">
<path d="M7.30724 0C3.74835 0 0.845703 3.04087 0.845703 6.76923V37.2308C0.845703 40.9591 3.74835 44 7.30724 44H26.6919C30.2507 44 33.1534 40.9591 33.1534 37.2308V13.5385C33.1534 11.7404 31.5822 10.0349 28.7616 7.13942C28.3703 6.73618 27.9476 6.28666 27.55 5.87019C27.1525 5.45373 26.7234 5.0637 26.3385 4.65385C23.5747 1.69892 21.9467 0 20.2303 0H7.30724ZM7.30724 3.38462H19.0693C20.2366 3.69531 20.2303 5.16286 20.2303 6.66346V11.8462C20.2303 12.7782 20.956 13.5385 21.8457 13.5385H26.6919C28.3009 13.5385 29.9226 13.5451 29.9226 15.2308V37.2308C29.9226 39.1016 28.4776 40.6154 26.6919 40.6154H7.30724C5.52148 40.6154 4.07647 39.1016 4.07647 37.2308V6.76923C4.07647 4.89844 5.52148 3.38462 7.30724 3.38462ZM8.92263 8.46154C8.0329 8.46154 7.30724 9.22176 7.30724 10.1538V11.8462C7.30724 12.7782 8.0329 13.5385 8.92263 13.5385H17.4539C17.1762 13.0361 16.9995 12.4675 16.9995 11.8462V8.46154H8.92263ZM7.30724 18.6154V22H10.538V18.6154H7.30724ZM13.7688 18.6154V22H26.6919V18.6154H13.7688ZM7.30724 25.3846V28.7692H10.538V25.3846H7.30724ZM13.7688 25.3846V28.7692H26.6919V25.3846H13.7688ZM7.30724 32.1538V35.5385H10.538V32.1538H7.30724ZM13.7688 32.1538V35.5385H26.6919V32.1538H13.7688Z" fill="#1E1E1F"/>
</svg>
