<svg width="39" height="39" viewBox="0 0 39 39" fill="none" xmlns="http://www.w3.org/2000/svg">
<path d="M16.1386 0.866699C15.2542 0.888699 14.4718 1.43755 14.1477 2.25889L3.11334 30.2H2.33131C2.13695 30.1973 1.944 30.2332 1.76364 30.3057C1.58329 30.3781 1.41914 30.4857 1.28073 30.6222C1.14232 30.7587 1.03241 30.9213 0.957397 31.1006C0.882381 31.2799 0.84375 31.4723 0.84375 31.6667C0.84375 31.8611 0.882381 32.0535 0.957397 32.2328C1.03241 32.4121 1.14232 32.5747 1.28073 32.7112C1.41914 32.8477 1.58329 32.9553 1.76364 33.0277C1.944 33.1002 2.13695 33.1361 2.33131 33.1334H8.19797C8.39232 33.1361 8.58528 33.1002 8.76563 33.0277C8.94599 32.9553 9.11014 32.8477 9.24855 32.7112C9.38696 32.5747 9.49686 32.4121 9.57188 32.2328C9.6469 32.0535 9.68553 31.8611 9.68553 31.6667C9.68553 31.4723 9.6469 31.2799 9.57188 31.1006C9.49686 30.9213 9.38696 30.7587 9.24855 30.6222C9.11014 30.4857 8.94599 30.3781 8.76563 30.3057C8.58528 30.2332 8.39232 30.1973 8.19797 30.2H7.84276L10.1774 24.2904C10.2507 24.3021 10.3188 24.3334 10.398 24.3334H16.299C16.6686 23.2906 17.1514 22.3035 17.7571 21.4H11.3175L16.3277 8.71566L20.656 18.3091C21.8147 17.4101 23.1236 16.6989 24.5433 16.2237L18.1982 2.16149C17.833 1.35482 17.0215 0.868166 16.1386 0.866699ZM28.7313 18.4667C23.0612 18.4667 18.4646 23.0632 18.4646 28.7334C18.4646 34.4035 23.0612 39 28.7313 39C34.4014 39 38.998 34.4035 38.998 28.7334C38.998 23.0632 34.4014 18.4667 28.7313 18.4667ZM28.7313 22.8667C29.5409 22.8667 30.198 23.5223 30.198 24.3334V27.2667H33.1313C33.9409 27.2667 34.598 27.9223 34.598 28.7334C34.598 29.5444 33.9409 30.2 33.1313 30.2H30.198V33.1334C30.198 33.9444 29.5409 34.6 28.7313 34.6C27.9217 34.6 27.2646 33.9444 27.2646 33.1334V30.2H24.3313C23.5217 30.2 22.8646 29.5444 22.8646 28.7334C22.8646 27.9223 23.5217 27.2667 24.3313 27.2667H27.2646V24.3334C27.2646 23.5223 27.9217 22.8667 28.7313 22.8667Z" fill="#1E1E1F"/>
</svg>
