<svg width="60" height="60" viewBox="0 0 60 60" fill="none" xmlns="http://www.w3.org/2000/svg">
<path d="M51 7.5V57H10.5V7.5H51ZM52.5 6H9V58.5H52.5V6Z" fill="#EA9B3D"/>
<path d="M36.75 17.25H44.25M36.75 23.25H44.25M36.75 29.25H44.25M18.75 35.25H44.25M18.75 41.25H44.25M18.75 47.25H44.25" stroke="#EA9B3D" stroke-miterlimit="10" stroke-linecap="round"/>
<path d="M25.5 12C24.9091 12 24.3239 12.1164 23.7779 12.3425C23.232 12.5687 22.7359 12.9002 22.318 13.318C21.9002 13.7359 21.5687 14.232 21.3425 14.7779C21.1164 15.3239 21 15.9091 21 16.5C21 17.0909 21.1164 17.6761 21.3425 18.2221C21.5687 18.768 21.9002 19.2641 22.318 19.682C22.7359 20.0998 23.232 20.4313 23.7779 20.6575C24.3239 20.8836 24.9091 21 25.5 21C26.0909 21 26.6761 20.8836 27.2221 20.6575C27.768 20.4313 28.2641 20.0998 28.682 19.682C29.0998 19.2641 29.4313 18.768 29.6575 18.2221C29.8836 17.6761 30 17.0909 30 16.5C30 15.9091 29.8836 15.3239 29.6575 14.7779C29.4313 14.232 29.0998 13.7359 28.682 13.318C28.2641 12.9002 27.768 12.5687 27.2221 12.3425C26.6761 12.1164 26.0909 12 25.5 12ZM25.5 22.5C21.3585 22.5 18 25.8585 18 30H33C33 25.8585 29.6415 22.5 25.5 22.5Z" fill="white"/>
</svg>
