<svg width="50" height="46" viewBox="0 0 50 46" fill="none" xmlns="http://www.w3.org/2000/svg">
<path d="M13.875 0.375V12.1875H17.25V3.75H20.625V5.4375H24V3.75H39.1875V5.4375H42.5625V3.75H45.9375V24H42.5625V22.3125H39.1875V27.375H49.3125V0.375H13.875ZM20.625 8.8125V12.1875H24V8.8125H20.625ZM39.1875 8.8125V12.1875H42.5625V8.8125H39.1875ZM0.375 15.5625V45.9375H35.8125V15.5625H0.375ZM39.1875 15.5625V18.9375H42.5625V15.5625H39.1875ZM3.75 18.9375H32.4375V35.4434L28.0605 31.0664L26.8477 29.9062L22.1016 34.6523L14.877 27.375L13.7168 26.1621L3.75 36.1289V18.9375ZM23.1562 22.3125C21.7573 22.3125 20.625 23.4448 20.625 24.8438C20.625 26.2427 21.7573 27.375 23.1562 27.375C24.5552 27.375 25.6875 26.2427 25.6875 24.8438C25.6875 23.4448 24.5552 22.3125 23.1562 22.3125ZM13.7135 30.9609L22.151 39.3984L23.3145 38.1855L26.8477 34.6523L32.4375 40.2422V42.5625H3.75V40.9277L13.7135 30.9609Z" fill="#1E1E1F"/>
</svg>
