<svg width="58" height="44" viewBox="0 0 58 44" fill="none" xmlns="http://www.w3.org/2000/svg">
<path d="M3.6875 0.375C2.09448 0.375 0.875 1.59448 0.875 3.1875V36.9375C0.875 38.5305 2.09448 39.75 3.6875 39.75H4.625V40.6875C4.625 41.4382 4.90698 42.1853 5.46729 42.6541C6.03125 43.218 6.68677 43.5 7.4375 43.5H54.3125C55.9055 43.5 57.125 42.2805 57.125 40.6875V6.9375C57.125 5.34448 55.9055 4.125 54.3125 4.125H53.375V3.1875C53.375 1.59448 52.1555 0.375 50.5625 0.375H3.6875ZM3.6875 2.25H50.5625C51.1265 2.25 51.5 2.62354 51.5 3.1875V36.9375C51.5 37.5015 51.1265 37.875 50.5625 37.875H3.6875C3.12354 37.875 2.75 37.4062 2.75 36.9375V3.1875C2.75 2.62354 3.12354 2.25 3.6875 2.25ZM53.375 6H54.3125C54.8765 6 55.25 6.37354 55.25 6.9375V40.6875C55.25 41.2515 54.8765 41.625 54.3125 41.625H7.4375C7.15552 41.625 6.96875 41.5298 6.78198 41.343C6.59522 41.1562 6.5 40.9695 6.5 40.6875V39.75H50.5625C52.1555 39.75 53.375 38.5305 53.375 36.9375V6Z" fill="white"/>
<path d="M14 5.0625C14 4.49854 14.3735 4.125 14.9375 4.125C15.5015 4.125 15.875 4.49854 15.875 5.0625V6.9375C15.875 7.50147 15.5015 7.875 14.9375 7.875C14.3735 7.875 14 7.50147 14 6.9375V5.0625Z" fill="#EA9B3D"/>
<path d="M18.7791 5.81323C18.9915 5.46167 19.3613 5.26758 19.7312 5.31152C19.8557 5.32617 19.9766 5.36646 20.0938 5.4397C20.6577 5.71802 20.7493 6.28198 20.4709 6.75073L19.5334 8.34375C19.343 8.62573 18.9695 8.8125 18.6875 8.8125C18.5946 8.90538 18.4146 8.81706 18.2325 8.72769L18.2188 8.72095C17.75 8.43896 17.6548 7.97022 17.8416 7.40625L18.7791 5.81323Z" fill="#EA9B3D"/>
<path d="M9.78125 5.53125C9.92041 5.46167 10.0559 5.41772 10.1841 5.40308C10.5649 5.35913 10.8835 5.55688 11.0959 5.90845L12.0334 7.4978C12.2202 7.96655 12.125 8.53052 11.6562 8.8125C11.4695 8.90772 11.2827 8.90405 11.1875 8.90405C10.814 8.90405 10.532 8.71729 10.3416 8.4353L9.40405 6.84595C9.21729 6.3772 9.3125 5.81323 9.78125 5.53125Z" fill="#EA9B3D"/>
<path d="M22.6243 8.8125C22.7415 8.76489 22.866 8.7356 22.9905 8.72461C23.3567 8.69531 23.7266 8.83813 23.9353 9.1897C24.2173 9.75 24.0305 10.2188 23.5618 10.5007L21.9688 11.4382C21.782 11.5334 21.6868 11.625 21.5 11.625C21.1265 11.625 20.8445 11.4382 20.6541 11.1562C20.3757 10.6875 20.4673 10.1235 21.0312 9.75L22.6243 8.8125Z" fill="#EA9B3D"/>
<path d="M6.03125 9.28125C6.24365 8.86011 6.60986 8.69897 6.97974 8.76855C7.10425 8.78687 7.2251 8.83447 7.34229 8.90405L8.9353 9.84155C9.40405 10.1235 9.59448 10.6875 9.3125 11.1562C9.12573 11.4382 8.84375 11.625 8.46655 11.625C8.27979 11.625 8.09302 11.625 7.90625 11.5334L6.31323 10.5959C5.9397 10.314 5.74927 9.75 6.03125 9.28125Z" fill="#EA9B3D"/>
<path d="M10.3416 14.4375C10.3416 11.8118 12.407 9.75 15.0291 9.75C17.6548 9.75 19.7166 11.8118 19.7166 14.4375C19.7166 17.0632 17.6548 19.125 15.0291 19.125C12.407 19.125 10.3416 17.0632 10.3416 14.4375Z" fill="#EA9B3D"/>
<path d="M4.625 14.4375C4.625 13.8735 4.99854 13.5 5.5625 13.5H7.4375C8.00147 13.5 8.375 13.8735 8.375 14.4375C8.375 15.0015 8.00147 15.375 7.4375 15.375H5.5625C4.99854 15.375 4.625 15.0015 4.625 14.4375Z" fill="#EA9B3D"/>
<path d="M21.5 14.4375C21.5 13.8735 21.8735 13.5 22.4375 13.5H24.3125C24.8765 13.5 25.25 13.8735 25.25 14.4375C25.25 15.0015 24.8765 15.375 24.3125 15.375H22.4375C21.8735 15.375 21.5 15.0015 21.5 14.4375Z" fill="#EA9B3D"/>
<path d="M8.00147 17.3416C8.11865 17.2976 8.23218 17.2683 8.34937 17.2537C8.69727 17.2207 9.03052 17.3452 9.3125 17.6272C9.59448 18.1875 9.40405 18.6562 8.9353 18.9382L7.34229 19.8757C7.15552 19.9709 7.06397 20.0625 6.87354 20.0625C6.5 20.0625 6.21802 19.8757 6.03125 19.5938C5.74927 19.0298 5.93604 18.561 6.40479 18.2791L8.00147 17.3416Z" fill="#EA9B3D"/>
<path d="M20.5625 17.8103C20.7749 17.3892 21.1411 17.2317 21.511 17.2976C21.6355 17.3196 21.76 17.3672 21.8772 17.4368L23.4666 18.3743C23.9353 18.6562 24.1257 19.2166 23.8438 19.6853C23.657 19.9673 23.375 20.1541 22.9978 20.1541C22.811 20.1541 22.7195 20.0625 22.5291 19.9709L20.9397 19.0334C20.4709 18.7515 20.3757 18.1875 20.5625 17.8103Z" fill="#EA9B3D"/>
<path d="M10.3416 20.5312C10.554 20.1797 10.9238 19.9856 11.2937 20.0295C11.4182 20.0442 11.5391 20.0845 11.6562 20.1541C12.125 20.436 12.2202 20.9048 12.0334 21.4688L11.0959 23.0618C10.9055 23.3438 10.532 23.5305 10.25 23.5305C10.1548 23.6257 9.96802 23.5305 9.78125 23.4353C9.21729 23.157 9.12573 22.593 9.40405 22.1243L10.3416 20.5312Z" fill="#EA9B3D"/>
<path d="M18.2188 20.1541C18.3579 20.0845 18.4934 20.0442 18.6216 20.0295C19.0024 19.9856 19.321 20.1797 19.5334 20.5312L20.4709 22.1243C20.6577 22.593 20.5625 23.157 20.0938 23.4353C19.907 23.5305 19.7202 23.5305 19.625 23.5305C19.2515 23.5305 18.9695 23.3438 18.7791 23.0618L17.8416 21.4688C17.6548 21 17.75 20.436 18.2188 20.1541Z" fill="#EA9B3D"/>
<path d="M39.2209 21.6555C39.7336 21.1392 40.4624 20.8828 41.1875 20.8828C41.9126 20.8828 42.6414 21.1392 43.1541 21.6555L49.343 27.8445C49.7166 28.218 49.7166 28.782 49.343 29.1555C48.9695 29.5291 48.4055 29.5291 48.032 29.1555L41.843 22.9666C41.4695 22.593 40.9055 22.593 40.532 22.9666L29.3772 34.125H48.6875C49.1562 34.125 49.625 34.4985 49.625 35.0625C49.625 35.6265 49.1562 36 48.6875 36H13.0625C12.5938 36 12.125 35.6265 12.125 35.0625C12.125 34.4985 12.4985 34.125 13.0625 34.125H16.4353L24.2209 26.343C25.3452 25.2188 27.125 25.2188 28.1541 26.343L31.3438 29.5291L39.2209 21.6555Z" fill="#EA9B3D"/>
<path d="M14 21.9375C14 21.3735 14.3735 21 14.9375 21C15.5015 21 15.875 21.3735 15.875 21.9375V23.8125C15.875 24.3765 15.5015 24.75 14.9375 24.75C14.3735 24.75 14 24.3765 14 23.8125V21.9375Z" fill="#EA9B3D"/>
<path d="M4.625 35.0625C4.625 34.4985 4.99854 34.125 5.5625 34.125H9.3125C9.87647 34.125 10.25 34.4985 10.25 35.0625C10.25 35.6265 9.87647 36 9.3125 36H5.5625C4.99854 36 4.625 35.6265 4.625 35.0625Z" fill="#EA9B3D"/>
</svg>
