<svg width="40" height="32" viewBox="0 0 40 32" fill="none" xmlns="http://www.w3.org/2000/svg">
<path d="M3.33333 0C2.44928 0 1.60143 0.337142 0.976311 0.937258C0.351189 1.53737 0 2.35131 0 3.2C0 4.04869 0.351189 4.86262 0.976311 5.46274C1.60143 6.06286 2.44928 6.4 3.33333 6.4C4.21739 6.4 5.06523 6.06286 5.69036 5.46274C6.31548 4.86262 6.66667 4.04869 6.66667 3.2C6.66667 2.35131 6.31548 1.53737 5.69036 0.937258C5.06523 0.337142 4.21739 0 3.33333 0ZM15 0L11.6667 3.2L15 6.4H31.6667C32.5867 6.4 33.3333 5.6832 33.3333 4.8V1.6C33.3333 0.7168 32.5867 0 31.6667 0H15ZM3.33333 12.8C2.44928 12.8 1.60143 13.1371 0.976311 13.7373C0.351189 14.3374 0 15.1513 0 16C0 16.8487 0.351189 17.6626 0.976311 18.2627C1.60143 18.8629 2.44928 19.2 3.33333 19.2C4.21739 19.2 5.06523 18.8629 5.69036 18.2627C6.31548 17.6626 6.66667 16.8487 6.66667 16C6.66667 15.1513 6.31548 14.3374 5.69036 13.7373C5.06523 13.1371 4.21739 12.8 3.33333 12.8ZM15 12.8L11.6667 16L15 19.2H38.3333C39.2533 19.2 40 18.4832 40 17.6V14.4C40 13.5168 39.2533 12.8 38.3333 12.8H15ZM3.33333 25.6C2.44928 25.6 1.60143 25.9371 0.976311 26.5373C0.351189 27.1374 0 27.9513 0 28.8C0 29.6487 0.351189 30.4626 0.976311 31.0627C1.60143 31.6629 2.44928 32 3.33333 32C4.21739 32 5.06523 31.6629 5.69036 31.0627C6.31548 30.4626 6.66667 29.6487 6.66667 28.8C6.66667 27.9513 6.31548 27.1374 5.69036 26.5373C5.06523 25.9371 4.21739 25.6 3.33333 25.6ZM15 25.6L11.6667 28.8L15 32H25C25.92 32 26.6667 31.2832 26.6667 30.4V27.2C26.6667 26.3168 25.92 25.6 25 25.6H15Z" fill="#0C1E2F"/>
</svg>
