<svg width="57" height="46" viewBox="0 0 57 46" fill="none" xmlns="http://www.w3.org/2000/svg">
<path d="M10.0065 0.901611C7.03163 0.901611 4.59668 3.30121 4.59668 6.2329C4.59668 7.14353 4.93212 8.01984 5.36378 8.98809C5.79544 9.95634 6.35286 10.9757 6.90643 11.9161C8.01356 13.797 9.11685 15.369 9.11685 15.369L10.0065 16.6393L10.8962 15.369C10.8962 15.369 11.9995 13.797 13.1066 11.9161C13.6602 10.9757 14.2176 9.95634 14.6493 8.98809C15.0809 8.01984 15.4164 7.14353 15.4164 6.2329C15.4164 3.30121 12.9814 0.901611 10.0065 0.901611ZM10.0065 3.03413C11.8118 3.03413 13.2524 4.45386 13.2524 6.2329C13.2524 6.49995 13.0469 7.27813 12.6671 8.13008C12.2872 8.98203 11.7627 9.94803 11.2343 10.8457C10.6215 11.8868 10.4146 12.1539 10.0065 12.7658C9.59844 12.1539 9.39154 11.8868 8.77874 10.8457C8.25033 9.94803 7.72579 8.98203 7.34597 8.13008C6.96616 7.27813 6.76061 6.49995 6.76061 6.2329C6.76061 4.45386 8.20127 3.03413 10.0065 3.03413ZM10.0065 5.16664C9.40927 5.16664 8.92455 5.64432 8.92455 6.2329C8.92455 6.82147 9.40927 7.29915 10.0065 7.29915C10.6038 7.29915 11.0885 6.82147 11.0885 6.2329C11.0885 5.64432 10.6038 5.16664 10.0065 5.16664Z" fill="#EA9B3D"/>
<path d="M51.318 28.4426C48.3432 28.4426 45.9082 30.8422 45.9082 33.7739C45.9082 34.6845 46.2436 35.5609 46.6753 36.5291C47.107 37.4974 47.6644 38.5167 48.218 39.4571C49.3251 41.338 50.4284 42.91 50.4284 42.91L51.318 44.1803L52.2077 42.91C52.2077 42.91 53.311 41.338 54.4181 39.4571C54.9717 38.5167 55.5291 37.4974 55.9608 36.5291C56.3924 35.5609 56.7279 34.6845 56.7279 33.7739C56.7279 30.8422 54.2929 28.4426 51.318 28.4426ZM51.318 30.5751C53.1233 30.5751 54.5639 31.9949 54.5639 33.7739C54.5639 34.041 54.3584 34.8191 53.9786 35.6711C53.5988 36.5231 53.0742 37.4891 52.5458 38.3867C51.933 39.4278 51.7261 39.6949 51.318 40.3068C50.91 39.6949 50.7031 39.4278 50.0903 38.3867C49.5619 37.4891 49.0373 36.5231 48.6575 35.6711C48.2777 34.8191 48.0721 34.041 48.0721 33.7739C48.0721 31.9949 49.5128 30.5751 51.318 30.5751ZM51.318 32.7077C50.7208 32.7077 50.2361 33.1853 50.2361 33.7739C50.2361 34.3625 50.7208 34.8402 51.318 34.8402C51.9153 34.8402 52.4 34.3625 52.4 33.7739C52.4 33.1853 51.9153 32.7077 51.318 32.7077Z" fill="#EA9B3D"/>
<path fill-rule="evenodd" clip-rule="evenodd" d="M13.8634 15.5C13.8634 14.9477 14.3111 14.5 14.8634 14.5H19.3009C19.8531 14.5 20.3009 14.9477 20.3009 15.5C20.3009 16.0523 19.8531 16.5 19.3009 16.5H14.8634C14.3111 16.5 13.8634 16.0523 13.8634 15.5ZM22.7384 15.5C22.7384 14.9477 23.1861 14.5 23.7384 14.5H28.1759C28.7281 14.5 29.1759 14.9477 29.1759 15.5C29.1759 16.0523 28.7281 16.5 28.1759 16.5H23.7384C23.1861 16.5 22.7384 16.0523 22.7384 15.5ZM31.6134 15.5C31.6134 14.9477 32.0611 14.5 32.6134 14.5H37.0509C37.6031 14.5 38.0509 14.9477 38.0509 15.5C38.0509 16.0523 37.6031 16.5 37.0509 16.5H32.6134C32.0611 16.5 31.6134 16.0523 31.6134 15.5ZM40.4884 15.5C40.4884 14.9477 40.9361 14.5 41.4884 14.5H43.7071L44.4142 14.7929L46.1642 16.5429C46.5547 16.9334 46.5547 17.5666 46.1642 17.9571C45.7737 18.3476 45.1405 18.3476 44.75 17.9571L43.2929 16.5H41.4884C40.9361 16.5 40.4884 16.0523 40.4884 15.5ZM48.25 20.0429C48.6405 19.6524 49.2737 19.6524 49.6642 20.0429L51.4142 21.7929V23.2071L49.6642 24.9571C49.2737 25.3476 48.6405 25.3476 48.25 24.9571C47.8595 24.5666 47.8595 23.9334 48.25 23.5429L49.2929 22.5L48.25 21.4571C47.8595 21.0666 47.8595 20.4334 48.25 20.0429ZM46.1642 27.0429C46.5547 27.4334 46.5547 28.0666 46.1642 28.4571L44.4142 30.2071L43.7071 30.5H41.4884C40.9361 30.5 40.4884 30.0523 40.4884 29.5C40.4884 28.9477 40.9361 28.5 41.4884 28.5H43.2929L44.75 27.0429C45.1405 26.6524 45.7737 26.6524 46.1642 27.0429ZM7.5 28.7929L8.20711 28.5H10.4259C10.9781 28.5 11.4259 28.9477 11.4259 29.5C11.4259 30.0523 10.9781 30.5 10.4259 30.5H8.62132L7.03921 32.0821C6.64869 32.4726 6.01552 32.4726 5.625 32.0821C5.23448 31.6916 5.23448 31.0584 5.625 30.6679L7.5 28.7929ZM13.8634 29.5C13.8634 28.9477 14.3111 28.5 14.8634 28.5H19.3009C19.8531 28.5 20.3009 28.9477 20.3009 29.5C20.3009 30.0523 19.8531 30.5 19.3009 30.5H14.8634C14.3111 30.5 13.8634 30.0523 13.8634 29.5ZM22.7384 29.5C22.7384 28.9477 23.1861 28.5 23.7384 28.5H28.1759C28.7281 28.5 29.1759 28.9477 29.1759 29.5C29.1759 30.0523 28.7281 30.5 28.1759 30.5H23.7384C23.1861 30.5 22.7384 30.0523 22.7384 29.5ZM31.6134 29.5C31.6134 28.9477 32.0611 28.5 32.6134 28.5H37.0509C37.6031 28.5 38.0509 28.9477 38.0509 29.5C38.0509 30.0523 37.6031 30.5 37.0509 30.5H32.6134C32.0611 30.5 31.6134 30.0523 31.6134 29.5ZM3.28921 34.4179C3.67974 34.8084 3.67974 35.4416 3.28921 35.8321L2.12132 37L3.28921 38.1679C3.67974 38.5584 3.67974 39.1916 3.28921 39.5821C2.89869 39.9726 2.26552 39.9726 1.875 39.5821L0 37.7071V36.2929L1.875 34.4179C2.26552 34.0274 2.89869 34.0274 3.28921 34.4179ZM5.625 41.9179C6.01552 41.5274 6.64869 41.5274 7.03921 41.9179L8.62132 43.5H10.2488C10.8011 43.5 11.2488 43.9477 11.2488 44.5C11.2488 45.0523 10.8011 45.5 10.2488 45.5H8.20711L7.5 45.2071L5.625 43.3321C5.23448 42.9416 5.23448 42.3084 5.625 41.9179ZM18.4154 45.5H14.3321C13.7798 45.5 13.3321 45.0523 13.3321 44.5C13.3321 43.9477 13.7798 43.5 14.3321 43.5H18.4154C18.9677 43.5 19.4154 43.9477 19.4154 44.5C19.4154 45.0523 18.9677 45.5 18.4154 45.5ZM21.4988 44.5C21.4988 43.9477 21.9465 43.5 22.4988 43.5H26.5821C27.1344 43.5 27.5821 43.9477 27.5821 44.5C27.5821 45.0523 27.1344 45.5 26.5821 45.5H22.4988C21.9465 45.5 21.4988 45.0523 21.4988 44.5ZM34.7488 45.5H30.6654C30.1132 45.5 29.6654 45.0523 29.6654 44.5C29.6654 43.9477 30.1132 43.5 30.6654 43.5H34.7488C35.3011 43.5 35.7488 43.9477 35.7488 44.5C35.7488 45.0523 35.3011 45.5 34.7488 45.5ZM37.8321 44.5C37.8321 43.9477 38.2798 43.5 38.8321 43.5H42.9154C43.4677 43.5 43.9154 43.9477 43.9154 44.5C43.9154 45.0523 43.4677 45.5 42.9154 45.5H38.8321C38.2798 45.5 37.8321 45.0523 37.8321 44.5Z" fill="white"/>
</svg>
