<svg width="42" height="42" viewBox="0 0 42 42" fill="none" xmlns="http://www.w3.org/2000/svg">
<path d="M0.375 0.375V15.375H4.125V19.125H7.875V15.375H15.375V0.375H0.375ZM15.375 15.375V19.125H19.125V22.875H11.625V26.625H0.375V41.625H15.375V26.625H26.625V22.875H22.875V19.125H30.375V15.375H34.125V19.125H37.875V15.375H41.625V0.375H26.625V15.375H15.375ZM37.875 19.125V22.875H41.625V19.125H37.875ZM37.875 22.875H34.125V26.625H37.875V22.875ZM37.875 26.625V30.375H41.625V26.625H37.875ZM37.875 30.375H34.125V26.625H30.375V30.375H21V41.625H24.75V34.125H32.25V37.875H36V34.125H37.875V30.375ZM32.25 37.875H28.5V41.625H32.25V37.875ZM34.125 22.875V19.125H30.375V22.875H34.125ZM11.625 22.875V19.125H7.875V22.875H11.625ZM4.125 19.125H0.375V22.875H4.125V19.125ZM19.125 0.375V7.875H17.25V11.625H19.125V13.5H22.875V7.875H24.75V4.125H22.875V0.375H19.125ZM4.125 4.125H11.625V11.625H4.125V4.125ZM30.375 4.125H37.875V11.625H30.375V4.125ZM6 6V9.75H9.75V6H6ZM32.25 6V9.75H36V6H32.25ZM4.125 30.375H11.625V37.875H4.125V30.375ZM6 32.25V36H9.75V32.25H6ZM37.875 37.875V41.625H41.625V37.875H37.875Z" fill="#EA9B3D"/>
</svg>
